<?xml version="1.0" encoding="UTF-8" standalone="no"?>
<!DOCTYPE svg PUBLIC "-//W3C//DTD SVG 1.1//EN" "http://www.w3.org/Graphics/SVG/1.1/DTD/svg11.dtd">
<svg width="100%" height="100%" viewBox="0 0 1462 484" version="1.1" xmlns="http://www.w3.org/2000/svg" xmlns:xlink="http://www.w3.org/1999/xlink" xml:space="preserve" xmlns:serif="http://www.serif.com/" style="fill-rule:evenodd;clip-rule:evenodd;stroke-linecap:round;stroke-linejoin:round;stroke-miterlimit:1.5;">
    <g transform="matrix(1,0,0,1,-137.152,-292.449)">
        <path d="M409.773,647.18C409.773,647.18 411.277,780.181 296.988,775.565C182.698,770.949 96.22,645.533 158.476,605.558C220.731,565.584 296.988,540 296.988,540C296.988,540 161.455,476.031 158.476,451.666C155.497,427.3 113.304,332.827 195.033,333.227C276.762,333.626 378.812,364.435 409.773,418.801C440.734,473.166 735.653,475.242 735.653,475.242" style="fill:none;stroke:rgb(3,227,255);stroke-width:1px;"/>
        <path d="M873.682,647.18L409.773,647.18" style="fill:none;stroke:rgb(3,227,255);stroke-width:1px;"/>
        <g transform="matrix(-1,0,0,1,1695.65,0)">
            <path d="M409.773,647.18C409.773,647.18 411.277,780.181 296.988,775.565C182.698,770.949 96.22,645.533 158.476,605.558C220.731,565.584 296.988,540 296.988,540C296.988,540 161.455,476.031 158.476,451.666C155.497,427.3 113.304,332.827 195.033,333.227C276.762,333.626 378.812,364.435 409.773,418.801C440.734,473.166 960,474.815 960,474.815" style="fill:none;stroke:rgb(3,227,255);stroke-width:1px;"/>
        </g>
        <g transform="matrix(-1,0,0,1,1695.65,0)">
            <path d="M821.971,647.18L409.773,647.18" style="fill:none;stroke:rgb(3,227,255);stroke-width:1px;"/>
        </g>
    </g>
    <g transform="matrix(1,0,0,1,-96.8751,-332.725)">
        <path d="M409.773,647.18C409.773,647.18 411.277,780.181 296.988,775.565C182.698,770.949 96.22,645.533 158.476,605.558C220.731,565.584 296.988,540 296.988,540C296.988,540 161.455,476.031 158.476,451.666C155.497,427.3 113.304,332.827 195.033,333.227C276.762,333.626 378.812,364.435 409.773,418.801C440.734,473.166 735.653,475.242 735.653,475.242" style="fill:none;stroke:rgb(179,179,180);stroke-width:1px;"/>
        <path d="M862,647.18L409.773,647.18" style="fill:none;stroke:rgb(179,179,180);stroke-width:1px;"/>
        <g transform="matrix(-1,0,0,1,1695.65,0)">
            <path d="M409.773,647.18C409.773,647.18 411.277,780.181 296.988,775.565C182.698,770.949 96.22,645.533 158.476,605.558C220.731,565.584 296.988,540 296.988,540C296.988,540 161.455,476.031 158.476,451.666C155.497,427.3 113.304,332.827 195.033,333.227C276.762,333.626 378.812,364.435 409.773,418.801C440.734,473.166 960,474.815 960,474.815" style="fill:none;stroke:rgb(179,179,180);stroke-width:1px;"/>
        </g>
        <g transform="matrix(-1,0,0,1,1695.65,0)">
            <path d="M833.653,647.18L409.773,647.18" style="fill:none;stroke:rgb(179,179,180);stroke-width:1px;"/>
        </g>
    </g>
</svg>
