<svg width="137" height="37" viewBox="0 0 137 37" fill="none" xmlns="http://www.w3.org/2000/svg">
<path opacity="0.1" fill-rule="evenodd" clip-rule="evenodd" d="M18.5 36C28.165 36 36 28.165 36 18.5C36 8.83502 28.165 1 18.5 1C8.83502 1 1 8.83502 1 18.5C1 28.165 8.83502 36 18.5 36Z" stroke="black" stroke-width="1.5"/>
<path d="M22.3333 14.6667C23.6593 14.6667 24.9311 15.1935 25.8688 16.1312C26.8065 17.0689 27.3333 18.3407 27.3333 19.6667V25.5001H23.9999V19.6667C23.9999 19.2247 23.8243 18.8008 23.5118 18.4882C23.1992 18.1757 22.7753 18.0001 22.3333 18.0001C21.8912 18.0001 21.4673 18.1757 21.1547 18.4882C20.8422 18.8008 20.6666 19.2247 20.6666 19.6667V25.5001H17.3333V19.6667C17.3333 18.3407 17.86 17.0689 18.7977 16.1312C19.7354 15.1935 21.0072 14.6667 22.3333 14.6667Z" fill="black"/>
<path d="M14.0001 15.5H10.6667V25.5H14.0001V15.5Z" fill="black"/>
<path d="M12.3334 13.0001C13.2539 13.0001 14.0001 12.2539 14.0001 11.3334C14.0001 10.4129 13.2539 9.66675 12.3334 9.66675C11.4129 9.66675 10.6667 10.4129 10.6667 11.3334C10.6667 12.2539 11.4129 13.0001 12.3334 13.0001Z" fill="black"/>
<path opacity="0.1" fill-rule="evenodd" clip-rule="evenodd" d="M68.5 36C78.165 36 86 28.165 86 18.5C86 8.83502 78.165 1 68.5 1C58.835 1 51 8.83502 51 18.5C51 28.165 58.835 36 68.5 36Z" stroke="black" stroke-width="1.5"/>
<path d="M73.9999 9.66675H71.4999C70.3948 9.66675 69.335 10.1057 68.5536 10.8871C67.7722 11.6685 67.3333 12.7283 67.3333 13.8334V16.3334H64.8333V19.6667H67.3333V26.3334H70.6666V19.6667H73.1666L73.9999 16.3334H70.6666V13.8334C70.6666 13.6124 70.7544 13.4004 70.9107 13.2442C71.0669 13.0879 71.2789 13.0001 71.4999 13.0001H73.9999V9.66675Z" fill="black"/>
<path opacity="0.1" fill-rule="evenodd" clip-rule="evenodd" d="M118.5 36C128.165 36 136 28.165 136 18.5C136 8.83502 128.165 1 118.5 1C108.835 1 101 8.83502 101 18.5C101 28.165 108.835 36 118.5 36Z" stroke="black" stroke-width="1.5"/>
<path d="M114 11.5V21.5" stroke="black" stroke-width="2" stroke-linecap="round" stroke-linejoin="round"/>
<path d="M124 16.5C125.381 16.5 126.5 15.3807 126.5 14C126.5 12.6193 125.381 11.5 124 11.5C122.619 11.5 121.5 12.6193 121.5 14C121.5 15.3807 122.619 16.5 124 16.5Z" stroke="black" stroke-width="2" stroke-linecap="round" stroke-linejoin="round"/>
<path d="M114 26.5C115.381 26.5 116.5 25.3807 116.5 24C116.5 22.6193 115.381 21.5 114 21.5C112.619 21.5 111.5 22.6193 111.5 24C111.5 25.3807 112.619 26.5 114 26.5Z" stroke="black" stroke-width="2" stroke-linecap="round" stroke-linejoin="round"/>
<path d="M124 16.5C124 18.4891 123.21 20.3968 121.803 21.8033C120.397 23.2098 118.489 24 116.5 24" stroke="black" stroke-width="2" stroke-linecap="round" stroke-linejoin="round"/>
</svg>
