<?xml version="1.0" encoding="UTF-8" standalone="no"?><!DOCTYPE svg PUBLIC "-//W3C//DTD SVG 1.1//EN" "http://www.w3.org/Graphics/SVG/1.1/DTD/svg11.dtd"><svg width="4606px" height="3567px" version="1.1" xmlns="http://www.w3.org/2000/svg" xmlns:xlink="http://www.w3.org/1999/xlink" xml:space="preserve" xmlns:serif="http://www.serif.com/" style="fill-rule:evenodd;clip-rule:evenodd;stroke-linecap:round;stroke-linejoin:round;stroke-miterlimit:1.5;"><rect id="Artboard1" x="0" y="0" width="4605.47" height="3566.27" style="fill:none;"/><g><g><path d="M1260.42,2941.02c-0,-0 234.088,343.47 -71.284,529.25c-305.375,185.781 -747.441,9.106 -654.631,-202.652c92.81,-211.753 246.957,-410.296 246.957,-410.296c-0,0 -463.367,68.107 -513.286,9.864c-49.919,-58.245 -323.204,-231.047 -109.85,-371.448c213.352,-140.404 532.208,-236.848 706.856,-148.968c174.647,87.878 945.628,-417.113 945.628,-417.113" style="fill:none;stroke:#03e3ff;stroke-width:3.12px;"/><path d="M2467.53,2138.17l-1207.11,802.851" style="fill:none;stroke:#03e3ff;stroke-width:3.12px;"/><g><path d="M3540.07,1424.82c-0,-0 226.261,348.676 515.656,138.874c289.398,-209.804 297.368,-685.801 66.195,-682.076c-231.17,3.726 -473.869,69.128 -473.869,69.128c-0,0 241.955,-401.006 207.54,-469.56c-34.417,-68.556 -88.127,-387.398 -300.096,-244.915c-211.971,142.48 -424.189,399.256 -410.664,594.3c13.524,195.041 -1334.77,1097.99 -1334.77,1097.99" style="fill:none;stroke:#03e3ff;stroke-width:3.12px;"/></g><g><path d="M2467.52,2138.17l1072.55,-713.359" style="fill:none;stroke:#03e3ff;stroke-width:3.12px;"/></g></g><g><path d="M1295.52,2766.52c-0,-0 234.088,343.469 -71.284,529.25c-305.375,185.781 -747.441,9.106 -654.631,-202.652c92.81,-211.754 246.957,-410.296 246.957,-410.296c-0,0 -463.368,68.107 -513.286,9.864c-49.919,-58.245 -323.204,-231.047 -109.85,-371.448c213.352,-140.404 532.208,-236.848 706.856,-148.968c174.647,87.878 945.628,-417.114 945.628,-417.114" style="fill:none;stroke:#b3b3b4;stroke-width:3.12px;"/><path d="M2472.23,1983.88l-1176.71,782.634" style="fill:none;stroke:#b3b3b4;stroke-width:3.12px;"/><g><path d="M3575.17,1250.31c-0,-0 226.261,348.675 515.656,138.873c289.397,-209.803 297.368,-685.8 66.195,-682.075c-231.17,3.726 -473.869,69.128 -473.869,69.128c-0,-0 241.955,-401.006 207.54,-469.56c-34.417,-68.556 -88.127,-387.398 -300.096,-244.915c-211.971,142.48 -424.189,399.256 -410.664,594.3c13.524,195.041 -1334.77,1097.99 -1334.77,1097.99" style="fill:none;stroke:#b3b3b4;stroke-width:3.12px;"/></g><g><path d="M2472.22,1983.89l1102.95,-733.576" style="fill:none;stroke:#b3b3b4;stroke-width:3.12px;"/></g></g><g><path d="M805.877,1593.85c0,0 -164.851,381.567 -485.221,223.043c-320.372,-158.525 -407.727,-626.506 -179.178,-661.441c228.545,-34.934 478.759,-10.984 478.759,-10.984c-0,0 -305.529,-354.965 -283.046,-428.304c22.484,-73.342 22.189,-396.676 254.978,-291.595c232.789,105.078 484.911,322.806 504.15,517.369c19.24,194.561 858.451,575.551 858.451,575.551" style="fill:none;stroke:#03e3ff;stroke-width:3.13px;"/><path d="M2130.11,2183.83l-1324.24,-589.978" style="fill:none;stroke:#03e3ff;stroke-width:3.13px;"/><g><path d="M3306.73,2708.04c0,0 -173.437,377.741 158.673,509.912c332.114,132.173 738.465,-115.851 611.592,-309.135c-126.871,-193.279 -312.011,-363.289 -312.011,-363.289c-0,-0 468.234,-10.237 507.724,-75.998c39.491,-65.765 280.078,-281.781 46.273,-384.578c-233.805,-102.8 -564.29,-144.638 -721.809,-28.824c-157.517,115.811 -1641.87,-539.86 -1641.87,-539.86" style="fill:none;stroke:#03e3ff;stroke-width:3.13px;"/></g><g><path d="M2130.11,2183.83l1176.63,524.214" style="fill:none;stroke:#03e3ff;stroke-width:3.13px;"/></g></g><g><path d="M972.068,1530.11c-0,0 -164.851,381.567 -485.221,223.043c-320.373,-158.525 -407.728,-626.506 -179.178,-661.441c228.545,-34.934 478.758,-10.984 478.758,-10.984c0,0 -305.528,-354.965 -283.046,-428.304c22.484,-73.341 22.19,-396.676 254.978,-291.595c232.79,105.078 484.912,322.806 504.151,517.369c19.239,194.561 858.451,575.551 858.451,575.551" style="fill:none;stroke:#b3b3b4;stroke-width:3.13px;"/><path d="M2262.96,2105.23l-1290.89,-575.122" style="fill:none;stroke:#b3b3b4;stroke-width:3.13px;"/><g><path d="M3472.92,2644.3c0,0 -173.438,377.742 158.673,509.912c332.113,132.173 738.465,-115.851 611.592,-309.135c-126.871,-193.279 -312.011,-363.289 -312.011,-363.289c-0,-0 468.234,-10.236 507.724,-75.998c39.491,-65.765 280.078,-281.781 46.272,-384.578c-233.804,-102.8 -564.289,-144.638 -721.808,-28.824c-157.518,115.811 -1641.87,-539.86 -1641.87,-539.86" style="fill:none;stroke:#b3b3b4;stroke-width:3.13px;"/></g><g><path d="M2262.95,2105.22l1209.97,539.07" style="fill:none;stroke:#b3b3b4;stroke-width:3.13px;"/></g></g></g></svg>