<!DOCTYPE svg PUBLIC "-//W3C//DTD SVG 1.1//EN" "http://www.w3.org/Graphics/SVG/1.1/DTD/svg11.dtd">
<svg viewBox="0 0 486 155" version="1.1" xmlns="http://www.w3.org/2000/svg" xmlns:xlink="http://www.w3.org/1999/xlink" xml:space="preserve">
    <g transform="matrix(0.75,0,0,0.75,0,0)">
        <g transform="matrix(1.15642,0,0,1.16714,-121.311,-242.413)">
            <path d="M107.275,340.689C107.41,339.185 133.857,323.447 140.53,319.633C159.042,309.055 233.854,255.808 246.969,252.139" style="stroke-width:4.72px;"/>
        </g>
        <g transform="matrix(1.15642,0,0,1.16714,-121.311,-242.413)">
            <path d="M246.621,252.715C251.507,249.406 261.44,249.217 265.412,247.893C281.541,242.517 311.514,242.313 329.846,239.257C376.891,231.416 424.714,231.398 471.998,224.643C483.971,222.933 497.207,221.986 509.197,221.986C514.025,221.986 527.797,220.658 527.797,220.658C527.797,220.658 533.186,217.097 537.627,214.877C540.82,213.28 548.389,218.001 548.389,218.001C548.389,218.001 555.642,211.803 558.381,210.89C570.842,206.736 571.635,219.329 574.295,219.329" style="stroke-width:4.72px;"/>
        </g>
        <g transform="matrix(1.1443,0,0,1.16714,-116.781,-242.622)">
            <path d="M577.43,219.68C587.631,215.601 615.364,212.297 625.444,217.337C647.11,228.169 672.103,281.288 663.971,305.684C658.325,322.623 652.072,345.521 632.087,352.182C621.756,355.626 596.154,361.335 588.835,354.016C588.58,353.762 578.723,361.261 574.295,363.475C569.101,366.072 562.339,361.75 562.339,356.832C562.339,355.947 558.982,363.492 555.032,365.468C545.363,370.302 538.528,355.183 537.886,355.397C489.474,371.534 415.205,364.748 363.059,373.439C352.043,375.275 339.982,372.732 329.181,375.432C319.726,377.796 271.805,383.883 266.679,381.32C239.585,367.773 179.739,367.137 152.487,353.511C144.76,349.648 127.583,345.997 118.609,344.876C115.954,344.544 103.279,343.299 104.624,341.954" style="stroke-width:4.75px;"/>
        </g>
        <g transform="matrix(1.32338,0,0,1.00908,-145.986,-192.447)">
            <path d="M147.79,316.995C149.282,318.846 153.708,328.389 154.661,331.247C157.982,341.212 153.151,348.168 153.151,354.84" style="stroke-width:4.66px;"/>
        </g>
        <g transform="matrix(1.15186,0,0,1.12087,-118.695,-232.267)">
            <path d="M575.729,219.278C573.381,224.661 577.643,231.377 578.945,235.936C581.807,245.951 581.117,256.581 583.595,266.492C590.873,295.604 586.916,330.532 586.916,359.489" style="stroke-width:4.83px;"/>
        </g>
        <g transform="matrix(1.17968,0,0,1.13552,-134.027,-235.554)">
            <path d="M547.042,217C546.242,216.594 547.892,218.583 548.389,219.329C550.676,222.76 552.358,227.006 554.367,230.622C558.765,238.538 561.414,252.164 563.667,261.178C565.753,269.521 568.364,310.764 566.324,320.962C563.559,334.787 560.46,348.031 560.46,362.245" style="stroke-width:4.74px;"/>
        </g>
        <g transform="matrix(1.15642,0,0,1.16714,-121.311,-242.413)">
            <path d="M528.086,222.572C534.066,231.543 533.246,248.433 535.768,258.521C541.432,281.177 547.858,307.673 543.075,331.59C541.438,339.775 537.125,348.296 537.125,356.228" style="stroke-width:4.72px;"/>
        </g>
        <g transform="matrix(1.15642,0,0,1.16714,-121.311,-242.413)">
            <path d="M271.259,381.381C253.301,377.358 288.064,346.999 286.647,345.937C278.264,339.65 252.943,326.332 256.112,313.655C258.298,304.913 266.562,295.898 272.719,289.741C273.591,288.869 278.762,283.734 283.965,281.117C285.364,280.413 277.045,279.67 275.376,279.113C267.144,276.369 247.551,261.939 247.551,252.876" style="stroke-width:4.72px;"/>
        </g>
        <g transform="matrix(1.15642,0,0,1.16714,-121.311,-242.413)">
            <path d="M532.777,251.997C531.676,249.08 480.776,254.136 473.327,255.2C426.427,261.9 379.298,269.717 331.838,274.463C323.855,275.262 289.28,281.411 282.912,281.049" style="stroke-width:4.72px;"/>
        </g>
        <g transform="matrix(1.13232,0,0,1.27294,-108.37,-276.3)">
            <path d="M541.629,319.45C536.451,320.129 529.583,320.298 523.811,320.298C512.206,320.298 500.177,322.567 488.605,323.619C419.014,329.945 353.984,344.524 283.355,344.524" style="stroke-width:4.56px;"/>
        </g>
    </g>
</svg>
