<!DOCTYPE svg PUBLIC "-//W3C//DTD SVG 1.1//EN" "http://www.w3.org/Graphics/SVG/1.1/DTD/svg11.dtd">
<svg viewBox="0 0 138 138" xmlns:xlink="http://www.w3.org/1999/xlink" xml:space="preserve" style="fill-rule:evenodd;clip-rule:evenodd;stroke-linejoin:round;stroke-miterlimit:1;">
    <g transform="matrix(0.75,0,0,0.75,0,0)">
        <g transform="matrix(1,0,0,1,-680.713,-129.623)">
            <path d="M719.158,288.185C718.817,288.897 718.478,289.593 718.232,290.317C717.308,293.044 716.937,295.927 718.139,299.534C718.497,300.607 719.165,301.641 720.165,302.528C720.88,303.163 722.629,304.178 723.021,304.402C724.409,305.734 726.589,307.379 728.576,307.875C735.807,309.683 742.277,306.981 748.05,304.095C748.122,304.059 748.195,304.02 748.27,303.977C750.336,305.872 753.257,307.757 756.247,308.89C759.643,310.177 763.082,310.433 765.616,309.589C768.088,308.765 770.204,307.558 771.909,305.91C773.512,307.794 775.742,309.319 778.342,310.328C783.889,312.482 790.861,312.092 794.741,309.505C795.737,308.841 797.254,308.029 798.435,307.066C801.121,308.926 804.182,311.026 806.908,311.934C809.355,312.75 813.412,311.874 815.705,311.219C817.956,310.576 819.816,309.506 821.915,308.807C826.331,307.335 828.574,303.79 829.007,298.976C829.322,295.474 828.521,291.112 827.55,287.242C827.362,286.493 827.161,285.772 826.967,285.095L827.025,285.068C829.162,283.999 831.837,283.397 834.15,282.009C841.568,277.558 848.509,266.05 852.279,258.51C856.238,250.592 858.378,241.036 859.793,232.544C860.693,227.145 862.54,222.054 863.442,216.645C864.605,209.668 862.91,201.844 861.587,195.228C860.006,187.321 859.536,178.885 855.215,171.684C849.331,161.877 838.511,151.509 829.38,144.662C824.233,140.801 818.343,139.701 812.689,136.874C795.524,128.291 774.168,127.861 755.837,132.861C744.707,135.896 734.425,135.635 723.606,141.044C719.607,143.044 715.676,146.424 712.345,149.338C707.645,153.451 702.901,156.8 698.791,161.595C683.985,178.868 678.622,199.235 681.424,221.649C683.828,240.881 692.614,261.297 704.674,276.372C708.253,280.846 711.781,283.401 716.532,286.569C717.169,286.993 718.118,287.631 719.158,288.185ZM823.218,275.421C824.978,274.691 827.029,274.193 828.817,273.121C834.793,269.535 839.97,259.949 843.007,253.874C846.515,246.859 848.314,238.364 849.568,230.84C850.468,225.441 852.316,220.35 853.217,214.941C854.178,209.173 852.517,202.73 851.423,197.261C850.069,190.493 850.024,183.18 846.327,177.017C841.069,168.255 831.318,159.072 823.161,152.954C818.53,149.481 813.14,148.689 808.053,146.146C793.115,138.677 774.517,138.51 758.564,142.861C748.114,145.711 738.401,145.236 728.241,150.316C724.996,151.939 721.874,154.774 719.171,157.139C714.853,160.918 710.438,163.935 706.661,168.341C693.842,183.297 689.284,200.956 691.709,220.363C693.886,237.773 701.851,256.249 712.768,269.896C715.62,273.461 718.496,275.42 722.282,277.944L723.192,278.564C723.681,278.461 724.184,278.429 724.683,278.471C725,278.409 725.328,278.377 725.663,278.377C728.523,278.377 730.846,280.699 730.846,283.56C730.846,286.613 729.959,289.089 728.952,291.432C728.43,292.647 727.673,293.757 727.762,295.197C728.548,295.68 729.691,296.418 730.11,296.837C730.388,297.115 731.115,297.707 731.319,297.871C735.846,298.899 739.784,296.638 743.414,294.823C743.587,294.737 743.847,294.486 744.099,294.213C744.052,293.603 744.048,293.059 744.099,292.64C744.561,288.793 747.126,287.499 749.642,287.499C752.007,287.499 753.502,288.603 754.469,290.246C754.891,290.963 755.216,291.884 755.271,292.988C755.308,293.736 755.134,294.769 754.913,295.675L755.035,296.186C756.023,297.321 758.01,298.473 759.922,299.198C760.818,299.537 761.669,299.978 762.338,299.755C763.994,299.203 765.265,298.234 765.837,296.517C765.97,296.117 766.998,293.322 767.716,291.944C768.277,290.867 768.92,290.167 769.306,289.832C770.525,288.776 771.766,288.535 772.72,288.522C774.115,288.503 775.4,288.956 776.504,290.06C776.97,290.526 777.678,291.482 778.164,292.934C778.719,294.594 779.286,297.979 779.58,298.862C779.719,299.278 780.1,299.556 780.492,299.832C781.332,300.424 782.382,300.831 783.473,301.094C785.469,301.576 787.679,301.755 788.991,300.881C789.467,300.563 790.47,299.932 791.147,299.51C791.153,298.497 791.192,297.233 791.326,296.609C791.602,295.331 792.168,294.4 792.712,293.786C793.831,292.522 795.22,291.93 796.818,291.93C798.382,291.93 799.853,292.495 801.09,293.812C801.61,294.366 802.133,295.151 802.546,296.119C802.719,296.526 802.966,297.223 803.144,297.742C805.226,299.236 807.62,301.13 809.839,301.975C810.313,301.869 812.151,301.454 812.857,301.252C814.898,300.669 816.583,299.682 818.474,299.029C818.536,298.812 818.655,298.355 818.683,298.049C818.799,296.748 818.627,295.269 818.368,293.769C817.458,288.491 815.614,283.02 815.614,280.953C815.614,280.006 815.877,276.869 819.573,275.892C820.02,275.773 822.325,275.518 823.218,275.421ZM720.431,280.139C720.387,280.186 720.344,280.235 720.301,280.285L720.431,280.139Z"/>
        </g>
        <g transform="matrix(1,0,0,1,-680.713,-129.623)">
            <path d="M739.172,228.095C719.465,223.382 714.622,251.899 734.785,255.932C746.448,258.264 756.905,246.627 749.902,236.123C748.87,234.574 747.968,232.549 746.253,231.692C743.85,230.49 742.382,228.095 739.172,228.095Z"/>
            <path d="M739.834,222.93C733.669,221.591 728.626,222.819 724.836,225.32C718.902,229.237 715.918,236.549 716.799,243.67C717.749,251.342 723.017,258.864 733.769,261.014C749.908,264.242 763.905,247.783 754.215,233.248C752.708,230.987 751.074,228.307 748.571,227.056C747.247,226.394 746.255,225.306 745.019,224.566C743.531,223.677 741.876,223.043 739.834,222.93ZM743.788,236.251C743.873,236.357 744.17,236.734 744.315,236.958C744.759,237.644 745.165,238.36 745.59,238.998C749.909,245.477 742.996,252.288 735.802,250.849C730.422,249.773 727.562,246.235 727.087,242.397C726.686,239.159 727.849,235.752 730.547,233.971C732.401,232.747 734.918,232.406 737.966,233.135C738.361,233.23 738.765,233.278 739.172,233.278C740.096,233.278 740.52,234.041 741.12,234.5C741.96,235.144 742.827,235.756 743.788,236.251Z"/>
        </g>
        <g transform="matrix(1,0,0,1,-680.713,-129.623)">
            <path d="M807.961,234.084C803.218,232.758 800.396,234.066 799.164,234.559C797.829,235.093 794.899,235.957 793.951,236.905C792.308,238.548 791.234,241.093 790.827,243.126C789.936,247.579 790.978,250.613 794.472,254.107C796.034,255.669 799.296,255.131 801.249,255.41C808.648,256.467 815.827,256.766 818.712,248.112C820.301,243.346 817.768,238.127 813.76,236.123C813.074,235.78 807.961,234.578 807.961,234.084Z"/>
            <path d="M810.86,229.787C810.408,229.482 809.902,229.245 809.356,229.092C802.823,227.266 798.936,229.068 797.239,229.747C795.422,230.474 791.576,231.95 790.286,233.24C787.935,235.591 786.327,239.199 785.745,242.11C784.478,248.444 785.836,252.801 790.807,257.772C792.187,259.152 794.081,259.983 796.237,260.291C797.701,260.501 799.344,260.374 800.516,260.541C810.487,261.966 819.741,261.414 823.629,249.751C826.049,242.49 822.184,234.541 816.078,231.487C815.588,231.242 811.961,230.124 810.86,229.787ZM805.998,238.934C807.617,239.608 810.912,240.64 811.64,240.865C813.433,241.888 814.525,244.282 813.795,246.473C811.903,252.148 806.834,250.973 801.982,250.28C800.947,250.132 798.473,250.028 797.712,249.999C796.019,248.167 795.433,246.524 795.909,244.143C796.121,243.083 796.593,241.75 797.391,240.816C797.924,240.609 800.281,239.694 801.089,239.371C801.805,239.085 803.386,238.355 805.998,238.934ZM813.127,233.68L813.135,233.796L813.133,233.735L813.127,233.68ZM813.103,233.438L813.111,233.508L813.098,233.377L813.074,233.234L813.103,233.438ZM812.796,232.217C812.92,232.538 813.013,232.873 813.071,233.218C813.019,232.891 812.931,232.556 812.796,232.217ZM812.738,232.076L812.744,232.09L812.738,232.076Z"/>
        </g>
        <g transform="matrix(1,0,0,1,-680.713,-129.623)">
            <path d="M775.2,267.748L776.07,264.597C776.691,263.831 777.1,262.88 777.199,261.826C777.49,258.719 775.903,257.394 775.443,256.988C773.869,255.597 771.997,255.139 769.783,256.166C769.24,256.418 768.161,257.007 767.31,258.487C766.493,259.909 764.558,266.258 764.671,268.735C764.868,273.092 767.827,274.407 770.233,274.407C773.093,274.407 775.415,272.085 775.415,269.224C775.415,268.712 775.341,268.216 775.2,267.748ZM772.291,264.468L772.374,264.505L772.364,264.5L772.291,264.468ZM772.242,264.446C771.638,264.176 770.968,264.041 770.233,264.041C770.945,264.041 771.624,264.185 772.242,264.446ZM766.861,261.596L766.863,261.618L766.86,261.528L766.861,261.596ZM766.856,261.24L766.857,261.306L766.859,261.187L766.856,261.24Z"/>
        </g>
    </g>
</svg>
