<!DOCTYPE svg PUBLIC "-//W3C//DTD SVG 1.1//EN" "http://www.w3.org/Graphics/SVG/1.1/DTD/svg11.dtd">
<svg viewBox="0 0 176 178" xml:space="preserve" style="fill-rule:evenodd;clip-rule:evenodd;stroke-linecap:round;stroke-linejoin:round;stroke-miterlimit:1.5;">
    <g transform="matrix(0.75,0,0,0.75,0,0)">
        <g transform="matrix(0.967165,0,0,0.983983,-221.236,-308.812)">
            <path d="M272.976,508.505C235.706,496.39 220.267,419.4 244.169,382.796C275.005,335.573 326.161,309.823 377.555,320.643C386.518,322.53 417.621,341.162 425.535,346.25C468.037,373.573 482.437,461.064 444.597,504.31C431.68,519.072 388.271,524.885 387.198,525.959C380.07,533.087 389.588,548.79 374.761,552.497C368.935,553.953 354.132,556.422 350.849,550.951C349.162,548.14 350.357,529.375 349.621,530.848C346.622,536.845 351.498,550.805 341.939,553.195C331.734,555.746 319.966,553.279 318.745,550.226L318.893,525.959C316.475,530.796 319.12,560.852 301.785,552.185C296.17,549.377 293.648,550.311 292.7,544.626C292.615,544.114 297.081,520.557 296.609,521.029C293.455,524.183 291.739,542.638 287.467,546.91C282.099,552.277 269.654,542.495 269.654,538.375C269.654,528.611 272.976,518.317 272.976,508.505Z"/>
        </g>
        <g transform="matrix(1,0,0,0.829575,-233.343,-238.928)">
            <path d="M316.349,396.111C303.034,391.825 298.067,400.676 294.451,405.842C286.268,417.531 282.374,457.211 301.434,461.71C308.011,463.263 312.375,460.43 318.195,457.52C345.548,443.844 342.745,404.608 316.349,396.111Z"/>
        </g>
        <g transform="matrix(0.924149,0,0,0.918912,-201.346,-280.23)">
            <path d="M395.727,416.316C355.104,421.146 354.33,473.087 376.105,473.087C430.804,473.087 431.411,412.073 395.727,416.316Z"/>
        </g>
        <g transform="matrix(1,0,0,1,-233.343,-317.691)">
            <path d="M335.505,486.381C335.56,484.137 341.839,472.186 339.145,472.186C332.235,472.186 336.277,490.241 335.505,486.381Z"/>
        </g>
    </g>
</svg>
