<?xml version="1.0" encoding="UTF-8" standalone="no"?>
<!DOCTYPE svg PUBLIC "-//W3C//DTD SVG 1.1//EN" "http://www.w3.org/Graphics/SVG/1.1/DTD/svg11.dtd">
<svg width="100%" height="100%" viewBox="0 0 3494 3454" version="1.1" xmlns="http://www.w3.org/2000/svg" xmlns:xlink="http://www.w3.org/1999/xlink" xml:space="preserve" xmlns:serif="http://www.serif.com/" style="fill-rule:evenodd;clip-rule:evenodd;stroke-linecap:round;stroke-linejoin:round;stroke-miterlimit:1.5;">
    <g id="Artboard1" transform="matrix(1.70595,0,0,2.24811,0,0)">
        <rect x="0" y="0" width="2048" height="1536" style="fill:none;"/>
        <g id="Layer2" transform="matrix(0.586185,0,0,0.444817,0,0)">
            <path d="M464.177,904.718C577.336,741.55 1151.46,50.539 1643.68,146.674C2135.9,242.81 2211.59,246.803 2341.67,340.999C2506.34,460.241 2604.84,514.193 2674.89,663.839C2744.94,813.484 2854.9,1237.26 2876.65,1329.89C2898.4,1422.52 2977.41,1608.86 2961.88,1719.51C2946.36,1830.15 2912.03,1909.7 2874.04,1973.03C2836.06,2036.36 2798.49,2286.31 2805.29,2353.16C2812.08,2420.01 2832.7,2625.31 2851.16,2700.09C2869.62,2774.88 2948.43,2856.91 2897.04,2933.39C2845.65,3009.86 2717.43,3107.61 2457.84,3029.96C2198.24,2952.31 2116.32,3155.24 1982.24,3142.5C1848.17,3129.75 1326.65,3102.73 1172.59,2977.17C1018.53,2851.61 1219.82,2815.98 872.203,2680.34C524.585,2544.69 538.455,2530.75 488.36,2415.43C438.264,2300.12 408.92,2135.7 385.227,2030.88C361.535,1926.06 411.9,1544.69 411.9,1544.69C411.9,1544.69 351.018,1067.89 464.177,904.718Z" style="fill:rgb(228,224,219);"/>
            <path d="M2940,1822.57C2940,1822.57 2903.86,1734.12 2822,1743.77C2740.14,1753.42 2760.62,1865.26 2724.01,1902.85C2687.39,1940.45 2657.78,2016.25 2662.99,2095.84C2668.21,2175.43 2682.31,2297.31 2708.83,2337.08C2735.35,2376.84 2772.6,2386.75 2787.54,2252.32C2802.49,2117.88 2805.94,2030.36 2825.79,1971.01C2845.65,1911.67 2940,1822.57 2940,1822.57Z" style="fill:rgb(33,8,8);stroke:black;stroke-width:9.57px;"/>
            <path d="M1855.64,1143.7C1864.63,1192.86 1775.76,1404.46 1576.98,1425.48C1378.2,1446.5 1347.46,1532.19 1290.9,1491.74C1234.33,1451.3 1220.29,1323.41 1203.33,1193.13C1186.38,1062.85 1110.02,1035.76 1258.5,967.783C1406.97,899.805 1543.22,843.927 1652.53,883.855C1761.85,923.783 1846.18,1092.03 1855.64,1143.7Z" style="fill:rgb(33,8,8);stroke:black;stroke-width:9.57px;"/>
            <path d="M2216.32,1049.34C2221.74,1037 2304.71,839.487 2414.53,857.657C2524.34,875.827 2654.33,901.292 2716.42,934.117C2778.51,966.943 2830.51,1198.74 2799.72,1224.31C2768.92,1249.88 2832.44,1371.88 2743.13,1392.4C2653.82,1412.93 2588.95,1400.44 2455.94,1349.14C2322.93,1297.84 2186.45,1117.35 2216.32,1049.34Z" style="fill:rgb(33,8,8);stroke:black;stroke-width:9.57px;"/>
            <path d="M1920.76,1551.49C1921.92,1546.27 1951.27,1391.43 1971.65,1344.63C1992.03,1297.84 1907.41,1203.5 2024.28,1187.44C2138.02,1171.82 2132.9,1156.17 2199.56,1193.89C2298.8,1250.04 2248.82,1226.56 2271.49,1298.16C2294.16,1369.77 2319.09,1435.48 2330.6,1505.73C2342.11,1575.98 2387.59,1676.96 2340.87,1705.6C2294.16,1734.24 2236.41,1754.87 2212.53,1706.19C2188.65,1657.51 2133.82,1755.69 2070.12,1754.55C2006.42,1753.42 1907.03,1613.32 1920.76,1551.49Z" style="fill:rgb(33,8,8);stroke:black;stroke-width:9.57px;"/>
            <path d="M1087,1857.09C1080.27,1856.07 1086.57,2016.43 1136.48,2098.33C1186.38,2180.22 1194.98,2274.14 1233.84,2354.26C1272.7,2434.39 1248.58,2481.22 1337.37,2558.51C1426.15,2635.81 1406.87,2742.87 1476.46,2725.3C1546.04,2707.74 1578.88,2648.31 1574.45,2591.71C1570.02,2535.1 1532.23,2567.51 1503.17,2464.98C1474.11,2362.46 1498.56,2348.17 1479.14,2209.05C1459.72,2069.93 1461.5,2019.55 1407.86,1929.64C1354.22,1839.74 1169.86,1869.65 1087,1857.09Z" style="fill:rgb(33,8,8);stroke:black;stroke-width:9.57px;"/>
        </g>
        <g transform="matrix(0.586185,0,0,0.444817,0,0)">
            <path d="M1508.14,2288.11C1538.84,2246.78 1533.23,2250.52 1575.69,2221.7C1618.16,2192.87 1614.71,2206.22 1659.21,2196.81C1703.72,2187.41 1724.14,2182.6 1762.17,2150.42C1800.2,2118.23 1800.31,2104.3 1843.94,2087.6C1887.57,2070.9 1883.98,2085.02 1943.12,2067.04C2002.26,2049.06 1998.56,2022.8 2038.63,2045.03C2078.71,2067.26 2087.83,2013.16 2131.51,1992.88C2175.19,1972.6 2187.05,2020.23 2219.35,2038.28C2251.65,2056.34 2229.24,2079.01 2290.5,2034.91C2351.77,1990.81 2333.28,1972.34 2385.3,1982.49C2437.32,1992.63 2410.59,2023.12 2433.06,2043.37C2455.53,2063.62 2473.85,2064.46 2501.09,2050.39C2528.34,2036.32 2486.89,2018.08 2535.83,2004.44C2584.77,1990.81 2564.56,1995.28 2594.69,2038.55C2624.82,2081.82 2640.46,2113.27 2629.91,2149.43C2619.36,2185.59 2563.7,2173.05 2546.93,2170.22C2530.16,2167.38 2483.07,2157.5 2458.38,2161.53C2433.68,2165.56 2357.03,2171.09 2333.46,2176.52C2309.9,2181.94 2207.27,2195.45 2173.03,2194.16C2138.78,2192.87 2091.44,2231.72 2063.23,2235.96C2035.02,2240.2 2009.91,2246.98 1982.42,2253.6C1954.93,2260.22 1940.63,2257.21 1901.36,2267.82C1862.09,2278.42 1801.66,2356.24 1779.09,2340.08C1756.51,2323.93 1719.73,2343.72 1694.43,2350.21C1669.13,2356.7 1632.58,2404.74 1604.43,2424.41C1576.29,2444.08 1533.44,2465.98 1513,2461.4C1492.56,2456.82 1498.24,2301.44 1508.14,2288.11Z" style="fill:rgb(172,169,147);"/>
        </g>
        <g transform="matrix(0.586185,0,0,0.444817,0,0)">
            <path d="M1584.39,2607.55C1577.64,2609.31 1528.33,2517.72 1540.48,2495.46C1552.63,2473.2 1576.39,2472.04 1599.09,2467.16C1621.8,2462.28 1641.14,2404.28 1676.07,2396.87C1711,2389.47 1825.14,2351.93 1878.2,2361.59C1931.26,2371.26 1897,2320.41 1957.82,2310.34C2018.64,2300.27 2028.7,2256.08 2079.19,2273.62C2129.68,2291.17 2112.16,2251.68 2192.83,2255.04C2273.49,2258.4 2291.61,2246.9 2338.98,2260.84C2386.35,2274.78 2421.19,2255.47 2473.86,2260.57C2526.52,2265.68 2521.4,2221.32 2571.29,2225.29C2621.18,2229.27 2613.18,2278.7 2601.71,2311.33C2590.23,2343.96 2567.01,2363.4 2572.25,2405.56C2577.49,2447.72 2565.97,2471.51 2527.13,2450.51C2488.29,2429.51 2484.6,2386.14 2470.97,2385.98C2457.35,2385.83 2444.62,2451.1 2420.04,2439.39C2395.45,2427.69 2379.17,2394.27 2368.2,2392.78C2357.23,2391.29 2380.95,2432.36 2343.6,2442.77C2306.26,2453.18 2297.96,2442.21 2278.44,2425.85C2258.93,2409.49 2230.16,2386.84 2218.15,2419.1C2206.14,2451.36 2174.84,2475.22 2147.71,2431.43C2120.58,2387.64 2110.01,2439.28 2089.81,2458.97C2069.61,2478.66 2027.06,2501.02 2012.84,2473.46C1998.62,2445.9 1999.38,2554.52 1948.94,2530.25C1898.5,2505.97 1905.25,2545.04 1845.44,2530.97C1785.63,2516.89 1795.83,2559.54 1731.57,2553.69C1667.31,2547.84 1683.67,2591.71 1641.81,2576.14C1599.96,2560.58 1599.78,2603.55 1584.39,2607.55Z" style="fill:rgb(172,169,147);"/>
        </g>
    </g>
</svg>
